ply
format ascii 1.0
comment VCGLIB generated
element vertex 100
property float x
property float y
property float z
property float nx
property float ny
property float nz
element face 162
property list uchar int vertex_indices
end_header
15 -3.27835e-06 15 8.742391e-08 1 1.311343e-07 
11.6667 -2.98694e-06 15 8.742224e-08 1 1.311351e-07 
8.33333 -2.69554e-06 15 8.742106e-08 1 1.311373e-07 
5 -2.40413e-06 15 8.742306e-08 1 1.311374e-07 
1.66667 -2.11272e-06 15 8.742296e-08 1 1.311373e-07 
-1.66667 -1.82131e-06 15 8.742295e-08 1 1.311373e-07 
-5 -1.5299e-06 15 8.742271e-08 1 1.311369e-07 
-8.33333 -1.23849e-06 15 8.742248e-08 1 1.311357e-07 
-11.6667 -9.4708e-07 15 8.742279e-08 1 1.311355e-07 
-15 -6.55671e-07 15 8.742359e-08 1 1.311355e-07 
15 -2.84124e-06 11.6667 8.742391e-08 1 1.311329e-07 
11.6667 -2.54983e-06 11.6667 8.742298e-08 1 1.311329e-07 
8.33333 -2.25842e-06 11.6667 8.742219e-08 1 1.31134e-07 
5 -1.96701e-06 11.6667 8.742307e-08 1 1.311344e-07 
1.66667 -1.6756e-06 11.6667 8.742293e-08 1 1.311344e-07 
-1.66667 -1.38419e-06 11.6667 8.74229e-08 1 1.311344e-07 
-5 -1.09278e-06 11.6667 8.742251e-08 1 1.311345e-07 
-8.33333 -8.01375e-07 11.6667 8.742185e-08 1 1.311344e-07 
-11.6667 -5.09966e-07 11.6667 8.74227e-08 1 1.311341e-07 
-15 -2.18557e-07 11.6667 8.742358e-08 1 1.311341e-07 
15 -2.40413e-06 8.33333 8.742389e-08 1 1.311338e-07 
11.6667 -2.11272e-06 8.33333 8.742298e-08 1 1.311338e-07 
8.33333 -1.82131e-06 8.33333 8.742257e-08 1 1.311338e-07 
5 -1.5299e-06 8.33333 8.74229e-08 1 1.311336e-07 
1.66667 -1.23849e-06 8.33333 8.742292e-08 1 1.31133e-07 
-1.66667 -9.4708e-07 8.33333 8.742281e-08 1 1.311329e-07 
-5 -6.55671e-07 8.33333 8.742295e-08 1 1.311328e-07 
-8.33333 -3.64261e-07 8.33333 8.74222e-08 1 1.311333e-07 
-11.6667 -7.28523e-08 8.33333 8.742265e-08 1 1.311335e-07 
-15 2.18557e-07 8.33333 8.742365e-08 1 1.311335e-07 
15 -1.96701e-06 5 8.742388e-08 1 1.311346e-07 
11.6667 -1.6756e-06 5 8.742295e-08 1 1.311346e-07 
8.33333 -1.38419e-06 5 8.742251e-08 1 1.311346e-07 
5 -1.09278e-06 5 8.742248e-08 1 1.311346e-07 
1.66667 -8.01375e-07 5 8.742228e-08 1 1.311345e-07 
-1.66667 -5.09966e-07 5 8.742271e-08 1 1.311343e-07 
-5 -2.18557e-07 5 8.742285e-08 1 1.311343e-07 
-8.33333 7.28526e-08 5 8.742244e-08 1 1.311342e-07 
-11.6667 3.64262e-07 5 8.742251e-08 1 1.311342e-07 
-15 6.55671e-07 5 8.742359e-08 1 1.311336e-07 
15 -1.5299e-06 1.66667 8.742345e-08 1 1.31134e-07 
11.6667 -1.23849e-06 1.66667 8.742295e-08 1 1.311335e-07 
8.33333 -9.4708e-07 1.66667 8.742239e-08 1 1.311335e-07 
5 -6.55671e-07 1.66667 8.742283e-08 1 1.311334e-07 
1.66667 -3.64262e-07 1.66667 8.742262e-08 1 1.311339e-07 
-1.66667 -7.28523e-08 1.66667 8.742278e-08 1 1.311341e-07 
-5 2.18557e-07 1.66667 8.742282e-08 1 1.311341e-07 
-8.33333 5.09966e-07 1.66667 8.742244e-08 1 1.311341e-07 
-11.6667 8.01376e-07 1.66667 8.742226e-08 1 1.311343e-07 
-15 1.09278e-06 1.66667 8.742246e-08 1 1.311347e-07 
15 -1.09278e-06 -1.66667 8.742252e-08 1 1.311347e-07 
11.6667 -8.01376e-07 -1.66667 8.742223e-08 1 1.311345e-07 
8.33333 -5.09966e-07 -1.66667 8.742241e-08 1 1.311341e-07 
5 -2.18557e-07 -1.66667 8.742281e-08 1 1.311341e-07 
1.66667 7.28523e-08 -1.66667 8.74228e-08 1 1.311341e-07 
-1.66667 3.64262e-07 -1.66667 8.742258e-08 1 1.31134e-07 
-5 6.55671e-07 -1.66667 8.742283e-08 1 1.311334e-07 
-8.33333 9.4708e-07 -1.66667 8.74224e-08 1 1.311335e-07 
-11.6667 1.23849e-06 -1.66667 8.742296e-08 1 1.311335e-07 
-15 1.5299e-06 -1.66667 8.742345e-08 1 1.311339e-07 
15 -6.55671e-07 -5 8.742383e-08 1 1.311335e-07 
11.6667 -3.64261e-07 -5 8.742256e-08 1 1.311342e-07 
8.33333 -7.28522e-08 -5 8.742229e-08 1 1.311344e-07 
5 2.18557e-07 -5 8.742282e-08 1 1.311343e-07 
1.66667 5.09966e-07 -5 8.742283e-08 1 1.311343e-07 
-1.66667 8.01376e-07 -5 8.742229e-08 1 1.311345e-07 
-5 1.09278e-06 -5 8.742237e-08 1 1.311347e-07 
-8.33333 1.38419e-06 -5 8.742251e-08 1 1.311346e-07 
-11.6667 1.6756e-06 -5 8.742295e-08 1 1.311346e-07 
-15 1.96701e-06 -5 8.742388e-08 1 1.311346e-07 
15 -2.18557e-07 -8.33333 8.74237e-08 1 1.311335e-07 
11.6667 7.28525e-08 -8.33333 8.742285e-08 1 1.311334e-07 
8.33333 3.64262e-07 -8.33333 8.742213e-08 1 1.311333e-07 
5 6.55671e-07 -8.33333 8.742283e-08 1 1.311328e-07 
1.66667 9.4708e-07 -8.33333 8.74228e-08 1 1.311329e-07 
-1.66667 1.23849e-06 -8.33333 8.742295e-08 1 1.311329e-07 
-5 1.5299e-06 -8.33333 8.742286e-08 1 1.311336e-07 
-8.33333 1.82131e-06 -8.33333 8.742256e-08 1 1.311338e-07 
-11.6667 2.11272e-06 -8.33333 8.742298e-08 1 1.311338e-07 
-15 2.40413e-06 -8.33333 8.742389e-08 1 1.311338e-07 
15 2.18557e-07 -11.6667 8.742358e-08 1 1.311341e-07 
11.6667 5.09966e-07 -11.6667 8.742283e-08 1 1.311341e-07 
8.33333 8.01376e-07 -11.6667 8.742188e-08 1 1.311343e-07 
5 1.09278e-06 -11.6667 8.742236e-08 1 1.311345e-07 
1.66667 1.38419e-06 -11.6667 8.74229e-08 1 1.311344e-07 
-1.66667 1.6756e-06 -11.6667 8.742294e-08 1 1.311344e-07 
-5 1.96701e-06 -11.6667 8.742308e-08 1 1.311344e-07 
-8.33333 2.25842e-06 -11.6667 8.742219e-08 1 1.311341e-07 
-11.6667 2.54983e-06 -11.6667 8.742298e-08 1 1.311329e-07 
-15 2.84124e-06 -11.6667 8.742391e-08 1 1.311329e-07 
15 6.55671e-07 -15 8.742359e-08 1 1.311355e-07 
11.6667 9.4708e-07 -15 8.742279e-08 1 1.311355e-07 
8.33333 1.23849e-06 -15 8.742257e-08 1 1.311355e-07 
5 1.5299e-06 -15 8.742263e-08 1 1.311369e-07 
1.66667 1.82131e-06 -15 8.742295e-08 1 1.311373e-07 
-1.66667 2.11272e-06 -15 8.742297e-08 1 1.311373e-07 
-5 2.40413e-06 -15 8.742305e-08 1 1.311374e-07 
-8.33333 2.69554e-06 -15 8.742105e-08 1 1.311373e-07 
-11.6667 2.98694e-06 -15 8.742224e-08 1 1.311351e-07 
-15 3.27835e-06 -15 8.742391e-08 1 1.311343e-07 
3 11 1 0 
3 0 10 11 
3 12 2 1 
3 1 11 12 
3 13 3 2 
3 2 12 13 
3 14 4 3 
3 3 13 14 
3 15 5 4 
3 4 14 15 
3 16 6 5 
3 5 15 16 
3 17 7 6 
3 6 16 17 
3 18 8 7 
3 7 17 18 
3 19 9 8 
3 8 18 19 
3 21 11 10 
3 10 20 21 
3 22 12 11 
3 11 21 22 
3 23 13 12 
3 12 22 23 
3 24 14 13 
3 13 23 24 
3 25 15 14 
3 14 24 25 
3 26 16 15 
3 15 25 26 
3 27 17 16 
3 16 26 27 
3 28 18 17 
3 17 27 28 
3 29 19 18 
3 18 28 29 
3 31 21 20 
3 20 30 31 
3 32 22 21 
3 21 31 32 
3 33 23 22 
3 22 32 33 
3 34 24 23 
3 23 33 34 
3 35 25 24 
3 24 34 35 
3 36 26 25 
3 25 35 36 
3 37 27 26 
3 26 36 37 
3 38 28 27 
3 27 37 38 
3 39 29 28 
3 28 38 39 
3 41 31 30 
3 30 40 41 
3 42 32 31 
3 31 41 42 
3 43 33 32 
3 32 42 43 
3 44 34 33 
3 33 43 44 
3 45 35 34 
3 34 44 45 
3 46 36 35 
3 35 45 46 
3 47 37 36 
3 36 46 47 
3 48 38 37 
3 37 47 48 
3 49 39 38 
3 38 48 49 
3 51 41 40 
3 40 50 51 
3 52 42 41 
3 41 51 52 
3 53 43 42 
3 42 52 53 
3 54 44 43 
3 43 53 54 
3 55 45 44 
3 44 54 55 
3 56 46 45 
3 45 55 56 
3 57 47 46 
3 46 56 57 
3 58 48 47 
3 47 57 58 
3 59 49 48 
3 48 58 59 
3 61 51 50 
3 50 60 61 
3 62 52 51 
3 51 61 62 
3 63 53 52 
3 52 62 63 
3 64 54 53 
3 53 63 64 
3 65 55 54 
3 54 64 65 
3 66 56 55 
3 55 65 66 
3 67 57 56 
3 56 66 67 
3 68 58 57 
3 57 67 68 
3 69 59 58 
3 58 68 69 
3 71 61 60 
3 60 70 71 
3 72 62 61 
3 61 71 72 
3 73 63 62 
3 62 72 73 
3 74 64 63 
3 63 73 74 
3 75 65 64 
3 64 74 75 
3 76 66 65 
3 65 75 76 
3 77 67 66 
3 66 76 77 
3 78 68 67 
3 67 77 78 
3 79 69 68 
3 68 78 79 
3 81 71 70 
3 70 80 81 
3 82 72 71 
3 71 81 82 
3 83 73 72 
3 72 82 83 
3 84 74 73 
3 73 83 84 
3 85 75 74 
3 74 84 85 
3 86 76 75 
3 75 85 86 
3 87 77 76 
3 76 86 87 
3 88 78 77 
3 77 87 88 
3 89 79 78 
3 78 88 89 
3 91 81 80 
3 80 90 91 
3 92 82 81 
3 81 91 92 
3 93 83 82 
3 82 92 93 
3 94 84 83 
3 83 93 94 
3 95 85 84 
3 84 94 95 
3 96 86 85 
3 85 95 96 
3 97 87 86 
3 86 96 97 
3 98 88 87 
3 87 97 98 
3 99 89 88 
3 88 98 99 
