ply
format ascii 1.0
comment VCGLIB generated
element vertex 100
property float x
property float y
property float z
property float nx
property float ny
property float nz
element face 162
property list uchar int vertex_indices
end_header
15 30 -15.00001 3.496912e-07 4.371252e-08 1 
15 26.6667 -15.00001 3.49692e-07 4.371084e-08 1 
15 23.33333 -15 3.496942e-07 4.370967e-08 1 
15 20 -15 3.496943e-07 4.371167e-08 1 
15 16.66667 -15 3.496942e-07 4.371157e-08 1 
15 13.33333 -15 3.496942e-07 4.371156e-08 1 
15 9.999999 -15 3.496938e-07 4.371132e-08 1 
15 6.666669 -15 3.496926e-07 4.371109e-08 1 
15 3.333299 -15 3.496924e-07 4.37114e-08 1 
15 0 -15 3.496924e-07 4.371219e-08 1 
11.6667 30 -15 3.496898e-07 4.371252e-08 1 
11.6667 26.6667 -15 3.496898e-07 4.371159e-08 1 
11.6667 23.33333 -15 3.496909e-07 4.371079e-08 1 
11.6667 20 -15 3.496913e-07 4.371168e-08 1 
11.6667 16.66667 -15 3.496913e-07 4.371154e-08 1 
11.6667 13.33333 -15 3.496913e-07 4.371151e-08 1 
11.6667 9.999999 -15 3.496914e-07 4.371111e-08 1 
11.6667 6.666669 -15 3.496913e-07 4.371046e-08 1 
11.6667 3.333299 -15 3.49691e-07 4.371131e-08 1 
11.6667 0 -15 3.49691e-07 4.371219e-08 1 
8.333326 30 -15 3.496907e-07 4.37125e-08 1 
8.333326 26.6667 -15 3.496907e-07 4.371159e-08 1 
8.333326 23.33333 -15 3.496907e-07 4.371118e-08 1 
8.333326 20 -15 3.496905e-07 4.371151e-08 1 
8.333326 16.66667 -15 3.496899e-07 4.371153e-08 1 
8.333326 13.33333 -15 3.496898e-07 4.371142e-08 1 
8.333326 9.999999 -15 3.496897e-07 4.371156e-08 1 
8.333326 6.666669 -15 3.496903e-07 4.371081e-08 1 
8.333326 3.333299 -15 3.496904e-07 4.371126e-08 1 
8.333326 0 -15 3.496904e-07 4.371226e-08 1 
4.999996 30 -15 3.496915e-07 4.371249e-08 1 
4.999996 26.6667 -15 3.496915e-07 4.371156e-08 1 
4.999996 23.33333 -15 3.496915e-07 4.371111e-08 1 
4.999996 20 -15 3.496915e-07 4.371109e-08 1 
4.999996 16.66667 -15 3.496914e-07 4.371089e-08 1 
4.999996 13.33333 -15 3.496912e-07 4.371132e-08 1 
4.999996 9.999999 -15 3.496912e-07 4.371146e-08 1 
4.999996 6.666669 -15 3.496911e-07 4.371105e-08 1 
4.999996 3.333299 -15 3.496911e-07 4.371111e-08 1 
4.999996 0 -15 3.496905e-07 4.371219e-08 1 
1.666667 30 -15 3.496909e-07 4.371206e-08 1 
1.666667 26.6667 -15 3.496904e-07 4.371156e-08 1 
1.666667 23.33333 -15 3.496904e-07 4.3711e-08 1 
1.666667 20 -15 3.496903e-07 4.371144e-08 1 
1.666667 16.66667 -15 3.496908e-07 4.371123e-08 1 
1.666667 13.33333 -15 3.49691e-07 4.371138e-08 1 
1.666667 9.999999 -15 3.49691e-07 4.371143e-08 1 
1.666667 6.666669 -15 3.49691e-07 4.371105e-08 1 
1.666667 3.333299 -15 3.496912e-07 4.371087e-08 1 
1.666667 0 -15 3.496916e-07 4.371106e-08 1 
-1.666673 30 -15 3.496916e-07 4.371113e-08 1 
-1.666673 26.6667 -15 3.496914e-07 4.371084e-08 1 
-1.666673 23.33333 -15 3.49691e-07 4.371102e-08 1 
-1.666673 20 -15 3.49691e-07 4.371142e-08 1 
-1.666673 16.66667 -15 3.49691e-07 4.371141e-08 1 
-1.666673 13.33333 -15 3.496909e-07 4.371119e-08 1 
-1.666673 9.999999 -15 3.496903e-07 4.371144e-08 1 
-1.666673 6.666669 -15 3.496904e-07 4.371101e-08 1 
-1.666673 3.333299 -15 3.496904e-07 4.371157e-08 1 
-1.666673 0 -15 3.496908e-07 4.371206e-08 1 
-5.000003 30 -15 3.496904e-07 4.371244e-08 1 
-5.000003 26.6667 -15 3.496911e-07 4.371117e-08 1 
-5.000003 23.33333 -15 3.496913e-07 4.37109e-08 1 
-5.000003 20 -15 3.496912e-07 4.371143e-08 1 
-5.000003 16.66667 -15 3.496912e-07 4.371144e-08 1 
-5.000003 13.33333 -15 3.496914e-07 4.37109e-08 1 
-5.000003 9.999999 -15 3.496916e-07 4.371098e-08 1 
-5.000003 6.666669 -15 3.496915e-07 4.371111e-08 1 
-5.000003 3.333299 -15 3.496915e-07 4.371156e-08 1 
-5.000003 0 -15 3.496915e-07 4.371249e-08 1 
-8.333332 30 -15 3.496904e-07 4.371231e-08 1 
-8.333332 26.6667 -15 3.496903e-07 4.371146e-08 1 
-8.333332 23.33333 -15 3.496903e-07 4.371074e-08 1 
-8.333332 20 -15 3.496897e-07 4.371144e-08 1 
-8.333332 16.66667 -15 3.496898e-07 4.371141e-08 1 
-8.333332 13.33333 -15 3.496898e-07 4.371156e-08 1 
-8.333332 9.999999 -15 3.496905e-07 4.371147e-08 1 
-8.333332 6.666669 -15 3.496907e-07 4.371117e-08 1 
-8.333332 3.333299 -15 3.496907e-07 4.371159e-08 1 
-8.333332 0 -15 3.496907e-07 4.37125e-08 1 
-11.6667 30 -15 3.49691e-07 4.371219e-08 1 
-11.6667 26.6667 -15 3.49691e-07 4.371144e-08 1 
-11.6667 23.33333 -15 3.496912e-07 4.371049e-08 1 
-11.6667 20 -15 3.496914e-07 4.371097e-08 1 
-11.6667 16.66667 -15 3.496913e-07 4.371151e-08 1 
-11.6667 13.33333 -15 3.496913e-07 4.371155e-08 1 
-11.6667 9.999999 -15 3.496913e-07 4.371169e-08 1 
-11.6667 6.666669 -15 3.49691e-07 4.371079e-08 1 
-11.6667 3.333299 -15 3.496898e-07 4.371159e-08 1 
-11.6667 0 -15 3.496898e-07 4.371252e-08 1 
-15 30 -15 3.496924e-07 4.371219e-08 1 
-15 26.6667 -15 3.496924e-07 4.37114e-08 1 
-15 23.33333 -15 3.496924e-07 4.371118e-08 1 
-15 20 -15 3.496938e-07 4.371124e-08 1 
-15 16.66667 -15 3.496942e-07 4.371156e-08 1 
-15 13.33333 -15 3.496942e-07 4.371158e-08 1 
-15 9.999999 -15 3.496943e-07 4.371165e-08 1 
-15 6.666669 -15 3.496942e-07 4.370966e-08 1 
-15 3.333299 -14.99999 3.49692e-07 4.371084e-08 1 
-15 0 -14.99999 3.496912e-07 4.371252e-08 1 
3 11 1 0 
3 0 10 11 
3 12 2 1 
3 1 11 12 
3 13 3 2 
3 2 12 13 
3 14 4 3 
3 3 13 14 
3 15 5 4 
3 4 14 15 
3 16 6 5 
3 5 15 16 
3 17 7 6 
3 6 16 17 
3 18 8 7 
3 7 17 18 
3 19 9 8 
3 8 18 19 
3 21 11 10 
3 10 20 21 
3 22 12 11 
3 11 21 22 
3 23 13 12 
3 12 22 23 
3 24 14 13 
3 13 23 24 
3 25 15 14 
3 14 24 25 
3 26 16 15 
3 15 25 26 
3 27 17 16 
3 16 26 27 
3 28 18 17 
3 17 27 28 
3 29 19 18 
3 18 28 29 
3 31 21 20 
3 20 30 31 
3 32 22 21 
3 21 31 32 
3 33 23 22 
3 22 32 33 
3 34 24 23 
3 23 33 34 
3 35 25 24 
3 24 34 35 
3 36 26 25 
3 25 35 36 
3 37 27 26 
3 26 36 37 
3 38 28 27 
3 27 37 38 
3 39 29 28 
3 28 38 39 
3 41 31 30 
3 30 40 41 
3 42 32 31 
3 31 41 42 
3 43 33 32 
3 32 42 43 
3 44 34 33 
3 33 43 44 
3 45 35 34 
3 34 44 45 
3 46 36 35 
3 35 45 46 
3 47 37 36 
3 36 46 47 
3 48 38 37 
3 37 47 48 
3 49 39 38 
3 38 48 49 
3 51 41 40 
3 40 50 51 
3 52 42 41 
3 41 51 52 
3 53 43 42 
3 42 52 53 
3 54 44 43 
3 43 53 54 
3 55 45 44 
3 44 54 55 
3 56 46 45 
3 45 55 56 
3 57 47 46 
3 46 56 57 
3 58 48 47 
3 47 57 58 
3 59 49 48 
3 48 58 59 
3 61 51 50 
3 50 60 61 
3 62 52 51 
3 51 61 62 
3 63 53 52 
3 52 62 63 
3 64 54 53 
3 53 63 64 
3 65 55 54 
3 54 64 65 
3 66 56 55 
3 55 65 66 
3 67 57 56 
3 56 66 67 
3 68 58 57 
3 57 67 68 
3 69 59 58 
3 58 68 69 
3 71 61 60 
3 60 70 71 
3 72 62 61 
3 61 71 72 
3 73 63 62 
3 62 72 73 
3 74 64 63 
3 63 73 74 
3 75 65 64 
3 64 74 75 
3 76 66 65 
3 65 75 76 
3 77 67 66 
3 66 76 77 
3 78 68 67 
3 67 77 78 
3 79 69 68 
3 68 78 79 
3 81 71 70 
3 70 80 81 
3 82 72 71 
3 71 81 82 
3 83 73 72 
3 72 82 83 
3 84 74 73 
3 73 83 84 
3 85 75 74 
3 74 84 85 
3 86 76 75 
3 75 85 86 
3 87 77 76 
3 76 86 87 
3 88 78 77 
3 77 87 88 
3 89 79 78 
3 78 88 89 
3 91 81 80 
3 80 90 91 
3 92 82 81 
3 81 91 92 
3 93 83 82 
3 82 92 93 
3 94 84 83 
3 83 93 94 
3 95 85 84 
3 84 94 95 
3 96 86 85 
3 85 95 96 
3 97 87 86 
3 86 96 97 
3 98 88 87 
3 87 97 98 
3 99 89 88 
3 88 98 99 
